<?xml version="1.0" encoding="UTF-8" standalone="no"?>
<svg width="587px" height="256px" viewBox="0 0 587 256" version="1.1" xmlns="http://www.w3.org/2000/svg" xmlns:xlink="http://www.w3.org/1999/xlink">
    <!-- Generator: Sketch 3.6.1 (26313) - http://www.bohemiancoding.com/sketch -->
    <title>verily_wordmark</title>
    <desc>Created with Sketch.</desc>
    <defs>
        <path id="path-1" d="M111.6,145.9996 L111.6,0.0306 L0.386274975,0.0306 L0.386274975,145.9996 L111.6,145.9996 L111.6,145.9996 Z"></path>
    </defs>
    <g id="Page-1" stroke="none" stroke-width="1" fill="none" fill-rule="evenodd">
        <g id="verily_wordmark">
            <g id="Page-1" transform="translate(35.000000, 36.000000)">
                <g id="Group-3" transform="translate(0.000000, 48.323000)" fill="#FFFFFF">
                    <path d="M108.3585,0.0308 L85.8345,0.0308 C83.5845,0.0308 81.0985,1.7298 80.2805,3.8258 L57.0875,65.7138 C56.2695,67.8108 54.9445,67.8108 54.1275,65.7138 L30.9335,3.8258 C30.1165,1.7298 27.6295,0.0308 25.3795,0.0308 L2.8555,0.0308 C0.6055,0.0308 -0.5555,1.7298 0.2615,3.8258 L38.7415,99.9468 C39.5585,102.0428 41.0455,103.7418 43.2955,103.7418 L67.9195,103.7418 C70.1685,103.7418 71.6555,102.0428 72.4725,99.9468 L110.9525,3.8258 C111.7695,1.7298 110.6085,0.0308 108.3585,0.0308" id="Fill-1"></path>
                </g>
                <path d="M333.7452,48.3538 L311.1692,48.3538 C308.9192,48.3538 307.0952,50.1778 307.0952,52.4278 L307.0952,148.0488 C307.0952,150.2988 308.9192,152.1228 311.1692,152.1228 L333.7452,152.1228 C335.9952,152.1228 337.8192,150.2988 337.8192,148.0488 L337.8192,52.4278 C337.8192,50.1778 335.9952,48.3538 333.7452,48.3538" id="Fill-4" fill="#FFFFFF"></path>
                <path d="M386.5794,8.1902 L364.0034,8.1902 C361.7534,8.1902 359.9294,10.0142 359.9294,12.2642 L359.9294,148.0482 C359.9294,150.2982 361.7534,152.1222 364.0034,152.1222 L386.5794,152.1222 C388.8294,152.1222 390.6534,150.2982 390.6534,148.0482 L390.6534,12.2642 C390.6534,10.0142 388.8294,8.1902 386.5794,8.1902" id="Fill-6" fill="#FFFFFF"></path>
                <path d="M322.4567,0.0001 C312.9207,0.0001 305.1617,7.7591 305.1617,17.2961 C305.1617,26.8321 312.9207,34.5901 322.4567,34.5901 C331.9937,34.5901 339.7527,26.8321 339.7527,17.2961 C339.7527,7.7591 331.9937,0.0001 322.4567,0.0001" id="Fill-8" fill="#FFFFFF"></path>
                <path d="M180.9701,88.1619 L146.3121,88.1619 C142.2421,88.1619 143.5401,84.7719 143.5401,84.7719 C144.5151,81.8399 146.1951,79.1189 148.3991,76.8999 C151.1341,74.1459 156.0021,70.8629 163.6611,70.8629 C170.4621,70.8629 175.7981,72.7909 179.5221,76.5929 C181.6911,78.8079 183.2661,81.7029 184.0751,84.9639 C184.0751,84.9639 184.7841,88.1619 180.9701,88.1619 M163.2581,46.9019 C156.8061,46.9019 150.5011,48.1769 144.5191,50.6909 C138.5511,53.1979 133.1961,56.8159 128.6051,61.4449 C123.8641,66.2259 120.1511,71.8789 117.5661,78.2479 C114.8271,84.9919 113.4401,92.3579 113.4401,100.1419 C113.4401,108.3679 114.8691,116.0349 117.6891,122.9299 C120.3551,129.4489 124.2121,135.1709 129.1511,139.9389 C138.6721,149.1269 151.6431,154.1889 165.6741,154.1889 C183.0821,154.1889 197.7451,146.8249 206.2911,133.8949 C206.5021,133.5749 206.8781,132.9699 207.2451,132.3709 C207.7641,131.5249 207.3791,130.4359 206.3911,129.9409 L186.9581,120.2099 C185.9701,119.7149 184.7261,119.9499 184.1641,120.7249 C183.7651,121.2749 183.3471,121.8359 183.1131,122.1049 C179.1211,126.6959 173.3351,129.0199 165.8751,129.0199 C154.7301,129.0199 145.1851,121.9809 142.6651,111.9039 C142.6651,111.9039 141.9501,108.7019 145.7631,108.7019 L209.3791,108.7019 C211.5331,108.7019 213.2781,106.9559 213.2781,104.8019 L213.2781,99.3379 C213.2781,83.4079 208.6841,70.1459 199.9911,60.9849 C191.2501,51.7719 178.5481,46.9019 163.2581,46.9019" id="Fill-10" fill="#FFFFFF"></path>
                <g id="Group-14" transform="translate(405.000000, 48.323000)">
                    <mask id="mask-2" fill="white">
                        <use xlink:href="#path-1"></use>
                    </mask>
                    <g id="Clip-13"></g>
                    <path d="M108.7448,0.0306 L86.2208,0.0306 C83.9708,0.0306 81.4838,1.7296 80.6668,3.8266 L57.4728,65.7146 C56.6558,67.8106 55.3308,67.8106 54.5128,65.7146 L31.3198,3.8266 C30.5018,1.7296 28.0158,0.0306 25.7658,0.0306 L3.2418,0.0306 C0.9918,0.0306 -0.1692,1.7296 0.6478,3.8266 L36.1928,94.9846 C38.6908,101.6946 40.2458,106.1066 40.2458,106.6876 C40.2458,109.6686 38.8658,112.4916 36.9208,115.1526 C34.9728,117.8116 32.6388,119.1416 29.9128,119.1416 C25.8548,119.1416 21.8768,117.6716 17.9788,114.7376 C16.1818,113.3846 14.2288,113.7886 13.4148,115.8866 L6.7938,132.9606 C5.9798,135.0586 6.7538,137.8916 8.6338,139.1276 C15.5998,143.7046 22.8868,145.9996 30.4968,145.9996 C37.8928,145.9996 44.6068,144.0216 50.6418,140.0646 C56.6748,136.1046 61.8508,130.5576 64.7068,123.4256 L70.8758,107.5396 C71.6898,105.4426 73.0188,102.0446 73.8378,99.9496 C80.1898,83.7036 105.0018,20.0756 111.3388,3.8256 C112.1558,1.7296 110.9948,0.0306 108.7448,0.0306" id="Fill-12" fill="#FFFFFF" mask="url(#mask-2)"></path>
                </g>
                <path d="M287.0988,46.9276 C282.5768,47.4946 278.1148,48.9416 273.7128,51.2676 C269.3308,53.5866 265.5248,56.2986 262.2928,59.4086 C260.8588,60.7886 259.8028,60.3986 259.8028,58.4076 L259.8028,51.9946 C259.8028,50.0036 258.1888,48.3896 256.1978,48.3896 L232.7058,48.3896 C230.7148,48.3896 229.1008,50.0036 229.1008,51.9946 L229.1008,148.4886 C229.1008,150.4796 230.7148,152.0926 232.7058,152.0926 L256.1978,152.0926 C258.1888,152.0926 259.8028,150.4796 259.8028,148.4886 L259.8028,107.3896 C259.8028,97.4116 261.9138,89.3856 266.1338,83.3096 C270.3558,77.2366 276.7498,74.1956 285.3208,74.1956 L288.1028,74.1956 C289.6398,74.1956 290.8738,72.5816 290.8598,70.5906 L290.7178,50.2676 C290.7038,48.2766 289.0748,46.6796 287.0988,46.9276" id="Fill-15" fill="#FFFFFF"></path>
                <path d="M103.8713,172.8783 L8.4293,172.8783 C6.8423,172.8783 5.5563,174.1643 5.5563,175.7513 L5.5563,180.6453 C5.5563,182.2323 6.8423,183.5183 8.4293,183.5183 L103.8713,183.5183 C105.4583,183.5183 106.7443,182.2323 106.7443,180.6453 L106.7443,175.7513 C106.7443,174.1643 105.4583,172.8783 103.8713,172.8783" id="Fill-17" fill="#FFFFFF"></path>
            </g>
        </g>
    </g>
</svg>
